<svg width="375" height="195" viewBox="0 0 375 195" fill="none" xmlns="http://www.w3.org/2000/svg">
<path d="M402.861 60.9327C232.739 18.4911 315.924 150.229 211.663 94.4465C138.989 55.5638 77.175 129.157 46.3912 177.317C36.3173 193.077 12.1982 194.499 1.79882 178.952L-67.732 75.0023C-75.1014 63.9849 -72.1441 49.0795 -61.1267 41.7101L215.89 -143.583C224.347 -149.24 235.359 -149.013 243.441 -142.83C305.197 -95.5818 552.488 98.2611 402.861 60.9327Z" fill="#F83758"/>
<path d="M363.361 42.925C222.893 8.11109 291.447 116.698 205.395 70.7998C148.43 40.416 99.4359 93.7155 72.823 133.219C62.3804 148.719 38.2152 150.13 27.8239 134.595L-23.012 58.5944C-30.3814 47.5771 -27.4241 32.6716 -16.4067 25.3023L206.737 -123.956C215.187 -129.608 226.171 -129.4 234.243 -123.218C288.746 -81.4796 485.109 73.0991 363.361 42.925Z" fill="url(#paint0_linear_2_5)"/>
<defs>
<linearGradient id="paint0_linear_2_5" x1="338.54" y1="-63.5355" x2="32.3085" y2="141.299" gradientUnits="userSpaceOnUse">
<stop stop-color="#F8BCC6"/>
<stop offset="1" stop-color="#F83758"/>
</linearGradient>
</defs>
</svg>
