<svg width="25" height="24" viewBox="0 0 25 24" fill="none" xmlns="http://www.w3.org/2000/svg">
<g clip-path="url(#clip0_5_222)">
<path d="M21.7631 4.60999C21.2523 4.099 20.6459 3.69364 19.9784 3.41708C19.311 3.14052 18.5956 2.99817 17.8731 2.99817C17.1506 2.99817 16.4352 3.14052 15.7677 3.41708C15.1003 3.69364 14.4938 4.099 13.9831 4.60999L12.9231 5.66999L11.8631 4.60999C10.8314 3.5783 9.43213 2.9987 7.97309 2.9987C6.51406 2.9987 5.11478 3.5783 4.08309 4.60999C3.0514 5.64169 2.4718 7.04096 2.4718 8.49999C2.4718 9.95903 3.0514 11.3583 4.08309 12.39L5.14309 13.45L12.9231 21.23L20.7031 13.45L21.7631 12.39C22.2741 11.8792 22.6794 11.2728 22.956 10.6053C23.2326 9.93789 23.3749 9.22248 23.3749 8.49999C23.3749 7.77751 23.2326 7.0621 22.956 6.39464C22.6794 5.72718 22.2741 5.12075 21.7631 4.60999Z" stroke="#5D5D5D" stroke-width="2" stroke-linecap="round" stroke-linejoin="round"/>
</g>
<defs>
<clipPath id="clip0_5_222">
<rect width="24" height="24" fill="white" transform="translate(0.923096)"/>
</clipPath>
</defs>
</svg>
