<svg width="16" height="16" viewBox="0 0 16 16" fill="none" xmlns="http://www.w3.org/2000/svg">
<g clip-path="url(#clip0_84_102)">
<path d="M14.6667 3.80001L11.6 1.20001L10.7333 2.20001L13.8 4.80001L14.6667 3.80001ZM5.26668 2.26668L4.40001 1.26668L1.33334 3.80001L2.20001 4.80001L5.26668 2.26668ZM8.33334 5.33335H7.33334V9.33335L10.4667 11.2667L11 10.4667L8.33334 8.86668V5.33335ZM8.00001 2.66668C4.66668 2.66668 2.00001 5.33335 2.00001 8.66668C2.00001 12 4.66668 14.6667 8.00001 14.6667C11.3333 14.6667 14 12 14 8.66668C14 5.33335 11.3333 2.66668 8.00001 2.66668ZM8.00001 13.3333C5.40001 13.3333 3.33334 11.2667 3.33334 8.66668C3.33334 6.06668 5.40001 4.00001 8.00001 4.00001C10.6 4.00001 12.6667 6.06668 12.6667 8.66668C12.6667 11.2667 10.6 13.3333 8.00001 13.3333Z" fill="white"/>
</g>
<defs>
<clipPath id="clip0_84_102">
<rect width="16" height="16" fill="white"/>
</clipPath>
</defs>
</svg>
